HIERARCHY
ROOT Hips
{
  OFFSET 47.3597 100.569 10.7306
  CHANNELS 6 Xposition Yposition Zposition Zrotation Xrotation Yrotation
  JOINT spine
  {
    OFFSET 0 8.81705 0.507024
    CHANNELS 3 Zrotation Xrotation Yrotation
    JOINT spine1
    {
      OFFSET 0 10.7766 0
      CHANNELS 3 Zrotation Xrotation Yrotation
      JOINT spine2
      {
        OFFSET 0 10.3259 0
        CHANNELS 3 Zrotation Xrotation Yrotation
        JOINT Neck
        {
          OFFSET 0 26.511 1.26395
          CHANNELS 3 Zrotation Xrotation Yrotation
          JOINT Head
          {
            OFFSET 0 8.00966 0
            CHANNELS 3 Zrotation Xrotation Yrotation
            End Site
            {
              OFFSET 0 19.3879 -6.39386
            }
          }
        }
        JOINT RightShoulder
        {
          OFFSET -4.34795 11.1512 -0.605422
          CHANNELS 3 Zrotation Xrotation Yrotation
          JOINT RightArm
          {
            OFFSET 0 14.6258 0
            CHANNELS 3 Zrotation Xrotation Yrotation
            JOINT RightArmRoll
            {
              OFFSET 0 7.3834 0
              CHANNELS 3 Zrotation Xrotation Yrotation
              JOINT RightForeArm
              {
                OFFSET 0 21.5052 0
                CHANNELS 3 Zrotation Xrotation Yrotation
                JOINT RightForeArmRoll
                {
                  OFFSET 0 8.28532 0
                  CHANNELS 3 Zrotation Xrotation Yrotation
                  JOINT RightHand
                  {
                    OFFSET 0 16.6268 0
                    CHANNELS 3 Zrotation Xrotation Yrotation
                    End Site
                    {
                      OFFSET 0 0 0
                    }
                  }
                }
              }
            }
          }
        }
        JOINT LeftShoulder
        {
          OFFSET 4.34795 11.1512 -0.605422
          CHANNELS 3 Zrotation Xrotation Yrotation
          JOINT LeftArm
          {
            OFFSET 0 14.6258 0
            CHANNELS 3 Zrotation Xrotation Yrotation
            JOINT LeftArmRoll
            {
              OFFSET 0 7.3834 0
              CHANNELS 3 Zrotation Xrotation Yrotation
              JOINT LeftForeArm
              {
                OFFSET 0 21.5052 0
                CHANNELS 3 Zrotation Xrotation Yrotation
                JOINT LeftForeArmRoll
                {
                  OFFSET 0 8.28532 0
                  CHANNELS 3 Zrotation Xrotation Yrotation
                  JOINT LeftHand
                  {
                    OFFSET 0 16.6268 0
                    CHANNELS 3 Zrotation Xrotation Yrotation
                    End Site
                    {
                      OFFSET 0 0 0
                    }
                  }
                }
              }
            }
          }
        }
      }
    }
  }
  JOINT RightUpLeg
  {
    OFFSET -7.8151 -1.43309 -1.20217
    CHANNELS 3 Zrotation Xrotation Yrotation
    JOINT RightUpLegRoll
    {
      OFFSET 0 19.4959 0
      CHANNELS 3 Zrotation Xrotation Yrotation
      JOINT RightLeg
      {
        OFFSET 0 -24.1427 0
        CHANNELS 3 Zrotation Xrotation Yrotation
        JOINT RightLegRoll
        {
          OFFSET 0 24.2217 0
          CHANNELS 3 Zrotation Xrotation Yrotation
          JOINT RightFoot
          {
            OFFSET 0 20.1605 0
            CHANNELS 3 Zrotation Xrotation Yrotation
            JOINT RightToeBase
            {
              OFFSET 0 16.8532 0
              CHANNELS 3 Zrotation Xrotation Yrotation
              End Site
              {
                OFFSET 0.00714343 8.16186 -0.940781
              }
            }
          }
        }
      }
    }
  }
  JOINT LeftUpLeg
  {
    OFFSET 7.8151 -1.43309 -1.20217
    CHANNELS 3 Zrotation Xrotation Yrotation
    JOINT LeftUpLegRoll
    {
      OFFSET 0 19.496 0
      CHANNELS 3 Zrotation Xrotation Yrotation
      JOINT LeftLeg
      {
        OFFSET 0 24.1426 0
        CHANNELS 3 Zrotation Xrotation Yrotation
        JOINT LeftLegRoll
        {
          OFFSET 0 24.4456 0
          CHANNELS 3 Zrotation Xrotation Yrotation
          JOINT LeftFoot
          {
            OFFSET 0 19.9366 0
            CHANNELS 3 Zrotation Xrotation Yrotation
            JOINT LeftToeBase
            {
              OFFSET 0 16.8532 0
              CHANNELS 3 Zrotation Xrotation Yrotation
              End Site
              {
                OFFSET -0.0320138 8.16187 -0.94078
              }
            }
          }
        }
      }
    }
  }
}
MOTION
Frames: 11
Frame Time: 0.00208333
44.4235 100.111 6.61256 -0.344912 1.48107 17.6286 0.00971727 -0.906027 0.49449 0.0224059 2.19089 0.987697 0.0105709 3.83587 0.988042 -31.1594 5.44354 -3.3195 23.2144 6.03612 -7.78715 23.2672 1.06985 6.83216 111.253 67.0556 -17.8661 -2.9694e-006 1.66074e-006 1.10829e-005 12.5234 46.2925 -6.86382 1.10418e-006 2.8541e-006 -2.99999 8.02904 -4.95145 0.697702 -66.2025 -13.6212 8.21256 -88.5065 42.0023 51.026 -3.74423e-006 -6.75786e-007 1.32066e-006 135.06 72.8326 -114.782 1.96417e-006 -6.10315e-006 3.00156 -8.02909 -4.95141 -0.697703 -178.421 8.19088 -2.37383 180 7.0156e-015 178.982 177.893 10.9687 179.731 -1.49533e-006 -1.62503e-006 0.254842 -21.5101 68.9093 20.3825 8.13649 25.2327 -3.48773 -174.243 13.0145 1.21304 4.54188e-006 -4.6773e-006 -0.92948 -1.53236 -13.8823 0.328895 -2.32599e-006 -3.99697e-006 -0.185583 18.8256 68.2755 -19.7602 -8.12848 25.2331 3.48432 
44.4613 100.119 6.63221 -0.335747 1.41983 17.4353 0.01781 -0.918416 0.48329 0.0386325 2.16617 0.964386 0.0270933 3.81116 0.964437 -30.872 5.42967 -3.22876 22.938 6.02172 -7.64839 23.542 1.08163 6.78167 111.738 66.7754 -18.6938 -2.9694e-006 1.66074e-006 1.10829e-005 12.6935 46.9732 -7.03803 1.10418e-006 2.8541e-006 -2.99999 8.02904 -4.95145 0.697702 -66.0771 -13.6086 8.21043 -88.5139 42.2286 50.7489 -3.74423e-006 -6.75786e-007 1.32066e-006 135.102 72.9734 -114.99 1.96417e-006 -6.10315e-006 3.00154 -8.02909 -4.95141 -0.697703 -178.427 8.07872 -2.36205 180 7.0156e-015 178.983 177.893 10.8881 179.731 -1.49533e-006 -1.62503e-006 0.25023 -21.4329 68.865 20.3389 8.13649 25.2327 -3.48773 -174.225 12.8911 1.18345 4.54188e-006 -4.6773e-006 -0.931534 -1.54964 -13.8947 0.32685 -2.32599e-006 -3.99697e-006 -0.186302 18.8353 68.2891 -19.7723 -8.12846 25.2331 3.48432 
44.5092 100.122 6.65391 -0.32672 1.35978 17.2396 0.0257297 -0.931014 0.472032 0.0545088 2.14103 0.940983 0.043266 3.78602 0.940745 -30.5804 5.41669 -3.13753 22.6591 6.00735 -7.50896 23.8222 1.09397 6.73087 112.199 66.4904 -19.5051 -2.9694e-006 1.66074e-006 1.10829e-005 12.8597 47.6556 -7.21297 1.10418e-006 2.8541e-006 -2.99999 8.02904 -4.95145 0.697702 -65.9496 -13.5961 8.2084 -88.5209 42.4569 50.4692 -3.74423e-006 -6.75786e-007 1.32066e-006 135.135 73.1195 -115.192 1.96417e-006 -6.10315e-006 3.00153 -8.02909 -4.95141 -0.697703 -178.434 7.96842 -2.3503 180 7.01561e-015 178.984 177.893 10.8081 179.731 -1.49533e-006 -1.62503e-006 0.245632 -21.356 68.8207 20.2957 8.13649 25.2327 -3.48773 -174.208 12.768 1.15418 4.54188e-006 -4.6773e-006 -0.933549 -1.56727 -13.906 0.324766 -2.32599e-006 -3.99697e-006 -0.186956 18.844 68.3023 -19.7841 -8.12844 25.2331 3.48431 
44.5571 100.13 6.67923 -0.317564 1.30143 17.0413 0.0334011 -0.943892 0.460772 0.0698851 2.11533 0.917603 0.0589376 3.76032 0.917085 -30.2849 5.40491 -3.04572 22.3777 5.99266 -7.36879 24.1075 1.10663 6.67957 112.638 66.201 -20.3016 -2.9694e-006 1.66074e-006 1.10829e-005 13.0212 48.3392 -7.38792 1.10418e-006 2.8541e-006 -2.99999 8.02904 -4.95145 0.697702 -65.8195 -13.5836 8.20641 -88.5273 42.6862 50.1864 -3.74423e-006 -6.75786e-007 1.32066e-006 135.156 73.2714 -115.387 1.96417e-006 -6.10315e-006 3.00151 -8.02909 -4.95141 -0.697703 -178.442 7.86104 -2.33838 180 7.01561e-015 178.986 177.894 10.7294 179.731 -1.49533e-006 -1.62503e-006 0.241051 -21.2794 68.7766 20.2529 8.13649 25.2327 -3.48773 -174.192 12.6455 1.12549 4.54188e-006 -4.6773e-006 -0.935527 -1.5854 -13.9161 0.322604 -2.32599e-006 -3.99697e-006 -0.187554 18.8521 68.315 -19.7955 -8.12842 25.2331 3.4843 
44.602 100.137 6.70118 -0.30801 1.24533 16.8399 0.0407487 -0.957121 0.449561 0.0846115 2.08892 0.894362 0.0739568 3.73392 0.893576 -29.9855 5.39461 -2.95324 22.0937 5.97732 -7.22781 24.3975 1.11936 6.62759 113.056 65.9075 -21.0848 -2.9694e-006 1.66074e-006 1.10829e-005 13.1772 49.0236 -7.56212 1.10418e-006 2.8541e-006 -2.99999 8.02904 -4.95145 0.697702 -65.6868 -13.571 8.2044 -88.5331 42.9156 49.8997 -3.74423e-006 -6.75786e-007 1.32066e-006 135.165 73.4297 -115.575 1.96417e-006 -6.10315e-006 3.0015 -8.02909 -4.95141 -0.697703 -178.452 7.7576 -2.32607 180 7.01561e-015 178.987 177.896 10.6527 179.731 -1.49533e-006 -1.62503e-006 0.23649 -21.2032 68.7326 20.2105 8.13649 25.2327 -3.48773 -174.178 12.524 1.09765 4.54188e-006 -4.6773e-006 -0.937471 -1.60417 -13.9247 0.320325 -2.32599e-006 -3.99697e-006 -0.188106 18.8597 68.3274 -19.8065 -8.1284 25.2331 3.48429 
44.6402 100.143 6.72925 -0.297779 1.19202 16.6352 0.0476972 -0.970773 0.438454 0.0985382 2.06166 0.871375 0.0881723 3.70666 0.870334 -29.6825 5.38609 -2.86 21.8071 5.96098 -7.08594 24.6919 1.13191 6.57476 113.454 65.6102 -21.8563 -2.9694e-006 1.66074e-006 1.10829e-005 13.3268 49.7084 -7.73474 1.10418e-006 2.8541e-006 -2.99999 8.02904 -4.95145 0.697702 -65.5511 -13.5581 8.20231 -88.5385 43.1441 49.6086 -3.74423e-006 -6.75786e-007 1.32066e-006 135.16 73.5949 -115.752 1.96417e-006 -6.10315e-006 3.00148 -8.02909 -4.95141 -0.697703 -178.464 7.65915 -2.31319 180 7.01561e-015 178.988 177.898 10.579 179.731 -1.49533e-006 -1.62503e-006 0.231953 -21.1272 68.6889 20.1685 8.13649 25.2327 -3.48773 -174.166 12.4037 1.07093 4.54188e-006 -4.6773e-006 -0.939383 -1.62371 -13.9314 0.317892 -2.32599e-006 -3.99697e-006 -0.188618 18.867 68.3392 -19.8171 -8.12838 25.2331 3.48428 
44.6827 100.153 6.74969 -0.286584 1.14203 16.4268 0.0541712 -0.984917 0.427505 0.111515 2.03341 0.848759 0.101433 3.67842 0.847479 -29.376 5.37963 -2.7659 21.5181 5.94329 -6.94312 24.9903 1.14404 6.5209 113.834 65.3094 -22.6175 -2.9694e-006 1.66074e-006 1.10829e-005 13.469 50.393 -7.90492 1.10418e-006 2.8541e-006 -2.99999 8.02904 -4.95145 0.697702 -65.4123 -13.5449 8.20007 -88.5435 43.3707 49.3123 -3.74423e-006 -6.75786e-007 1.32066e-006 135.139 73.7675 -115.919 1.96417e-006 -6.10315e-006 3.00147 -8.02909 -4.95141 -0.697703 -178.479 7.56674 -2.29951 180 7.01562e-015 178.989 177.9 10.5088 179.73 -1.49533e-006 -1.62503e-006 0.227442 -21.0513 68.6454 20.1271 8.13649 25.2327 -3.48773 -174.158 12.2849 1.0456 4.54188e-006 -4.6773e-006 -0.941267 -1.64418 -13.936 0.315266 -2.32599e-006 -3.99697e-006 -0.189101 18.8741 68.3506 -19.8272 -8.12836 25.2331 3.48427 
44.7319 100.166 6.81874 -0.274134 1.09591 16.2144 0.0600953 -0.999626 0.416766 0.123393 2.00403 0.826629 0.113587 3.64904 0.825129 -29.066 5.37552 -2.67085 21.2265 5.92391 -6.79928 25.2923 1.1555 6.46584 114.196 65.0054 -23.37 -2.9694e-006 1.66074e-006 1.10829e-005 13.6028 51.077 -8.0717 1.10418e-006 2.8541e-006 -2.99999 8.02904 -4.95145 0.697702 -65.2701 -13.5312 8.19764 -88.5482 43.5943 49.0103 -3.74423e-006 -6.75786e-007 1.32066e-006 135.101 73.9479 -116.074 1.96417e-006 -6.10315e-006 3.00145 -8.02909 -4.95141 -0.697703 -178.497 7.4814 -2.28484 180 7.01562e-015 178.99 177.902 10.443 179.729 -1.49533e-006 -1.62503e-006 0.222962 -20.9757 68.6022 20.0861 8.13649 25.2327 -3.48773 -174.153 12.1681 1.02191 4.54188e-006 -4.6773e-006 -0.943123 -1.6657 -13.9383 0.312408 -2.32599e-006 -3.99697e-006 -0.189562 18.8812 68.3614 -19.8367 -8.12834 25.2331 3.48426 
44.7758 100.163 6.83359 -0.260126 1.05419 15.9975 0.0653942 -1.01497 0.406293 0.134023 1.97337 0.8051 0.124483 3.61839 0.803402 -28.7529 5.37406 -2.57476 20.9324 5.90249 -6.65433 25.5977 1.16606 6.4094 114.543 64.6985 -24.1151 -2.9694e-006 1.66074e-006 1.10829e-005 13.727 51.7601 -8.23409 1.10418e-006 2.8541e-006 -2.99999 8.02904 -4.95145 0.697702 -65.1243 -13.5168 8.19495 -88.5526 43.814 48.7017 -3.74423e-006 -6.75786e-007 1.32066e-006 135.043 74.1368 -116.216 1.96417e-006 -6.10315e-006 3.00144 -8.02909 -4.95141 -0.697703 -178.518 7.40419 -2.26896 180 7.01562e-015 178.992 177.906 10.3824 179.728 -1.49533e-006 -1.62503e-006 0.218514 -20.9001 68.5594 20.0458 8.13649 25.2327 -3.48773 -174.152 12.0535 1.00013 4.54188e-006 -4.6773e-006 -0.944956 -1.68841 -13.938 0.309281 -2.32599e-006 -3.99697e-006 -0.19001 18.8886 68.3717 -19.8457 -8.12832 25.2331 3.48425 
44.8043 100.181 6.93499 -0.244249 1.01742 15.776 0.0699924 -1.03102 0.396137 0.143253 1.94129 0.784288 0.133971 3.58631 0.782416 -28.4366 5.37554 -2.47754 20.6359 5.87868 -6.50822 25.9061 1.17546 6.3514 114.875 64.3888 -24.8543 -2.9694e-006 1.66074e-006 1.10829e-005 13.8404 52.4416 -8.39099 1.10418e-006 2.8541e-006 -2.99999 8.02904 -4.95145 0.697702 -64.9747 -13.5018 8.19194 -88.5569 44.0286 48.386 -3.74423e-006 -6.75786e-007 1.32066e-006 134.964 74.3347 -116.343 1.96417e-006 -6.10315e-006 3.00142 -8.02909 -4.95141 -0.697703 -178.544 7.33613 -2.25168 180 7.01563e-015 178.993 177.909 10.3277 179.727 -1.49533e-006 -1.62503e-006 0.214103 -20.8247 68.5169 20.0061 8.13649 25.2327 -3.48773 -174.155 11.9414 0.980529 4.54188e-006 -4.6773e-006 -0.946767 -1.71247 -13.9348 0.305845 -2.32599e-006 -3.99697e-006 -0.190453 18.8963 68.3814 -19.854 -8.1283 25.2331 3.48424 
44.8543 100.184 6.95568 -0.225997 0.985945 15.5495 0.0737764 -1.048 0.386127 0.150858 1.90736 0.763859 0.141827 3.55238 0.76184 -28.1193 5.38116 -2.37851 20.3393 5.85153 -6.36061 26.216 1.18455 6.29281 115.197 64.0757 -25.5862 -2.9694e-006 1.66074e-006 1.10829e-005 13.9488 53.1213 -8.5478 1.10418e-006 2.8541e-006 -2.99999 8.02904 -4.95145 0.697702 -64.8213 -13.4866 8.18903 -88.56 44.2383 48.0615 -3.74423e-006 -6.75786e-007 1.32066e-006 134.861 74.5442 -116.454 1.96417e-006 -6.10315e-006 3.00141 -8.02909 -4.95141 -0.697703 -178.575 7.27788 -2.23284 180 7.01563e-015 178.995 177.914 10.2797 179.725 -1.49533e-006 -1.62503e-006 0.209707 -20.7492 68.475 19.967 8.13649 25.2327 -3.48773 -174.164 11.8316 0.963385 4.54188e-006 -4.6773e-006 -0.948538 -1.73791 -13.9284 0.302101 -2.32599e-006 -3.99697e-006 -0.190858 18.9038 68.3901 -19.8614 -8.12827 25.2331 3.48424 
